<?xml version="1.0" encoding="UTF-8"?>
<!-- Generator: Adobe Illustrator 19.1.0, SVG Export Plug-In . SVG Version: 6.00 Build 0)  -->
<svg width="97.467" height="63.861" enable-background="new 0 0 361.25 92.686" version="1.1" viewBox="0 0 97.467 63.861" xml:space="preserve" xmlns="http://www.w3.org/2000/svg" xmlns:cc="http://creativecommons.org/ns#" xmlns:dc="http://purl.org/dc/elements/1.1/" xmlns:rdf="http://www.w3.org/1999/02/22-rdf-syntax-ns#"><metadata><rdf:RDF><cc:Work rdf:about=""><dc:format>image/svg+xml</dc:format><dc:type rdf:resource="http://purl.org/dc/dcmitype/StillImage"/><dc:title/></cc:Work></rdf:RDF></metadata>
<g transform="translate(-10.479,-10.124)">
	<path d="m93.715 71.657c-1.241 0-2.397-0.79-2.805-2.035-0.507-1.549 0.338-3.216 1.888-3.723 5.615-1.838 9.243-6.76 9.243-12.539 0-7.32-5.955-13.275-13.274-13.275-0.509 0-1.056 0.04-1.722 0.126l-2.887 0.374-0.414-2.882c-1.773-12.357-12.538-21.676-25.04-21.676-10.335 0-19.535 6.187-23.438 15.763l-0.734 1.801-1.944 0.036c-8.936 0.164-16.205 7.564-16.205 16.495 0 6.52 3.785 12.465 9.643 15.146 1.482 0.679 2.134 2.43 1.455 3.913-0.679 1.482-2.43 2.133-3.912 1.456-7.951-3.64-13.09-11.692-13.09-20.515 0-11.481 8.846-21.098 20.082-22.279 5.177-10.825 16.027-17.719 28.144-17.719 14.502 0 27.108 10.167 30.377 24.06 10.431 0.169 18.864 8.706 18.864 19.176 0 8.25-5.35 15.544-13.312 18.149-0.304 0.1-0.614 0.148-0.919 0.148z"/>
	<path d="m48.607 73.029s-1e-3 0-1e-3 -1e-3c-1e-3 0-1e-3 0-2e-3 -1e-3h-1e-3 -1e-3 -1e-3 -1e-3 -1e-3c0 1e-3 -1e-3 0-1e-3 0h-2e-3 -1e-3 -1e-3c-1e-3 0-1e-3 -1e-3 -2e-3 0h-1e-3 -1e-3c-1e-3 0-2e-3 0-3e-3 -1e-3s-2e-3 -1e-3 -3e-3 -1e-3c0 0-1e-3 0-1e-3 -1e-3h-1e-3 -1e-3 -1e-3 -1e-3l-1e-3 -1e-3h-1e-3c-0.045-0.016-0.094-0.026-0.145-0.028h-1e-3 -1e-3 -3e-3 -1e-3 -1e-3 -1e-3 -1e-3 -1e-3 -1e-3 -2e-3 -1e-3c-1.277 0-2.323-1.04-2.331-2.315v-25.99h1.98 0.01c0.303 0.013 0.51-0.22 0.51-0.5 0-0.209-0.128-0.388-0.31-0.463l-9.551-6.592c-0.171-0.118-0.397-0.118-0.568 0l-9.626 6.644c-0.18 0.125-0.258 0.352-0.193 0.561s0.259 0.351 0.478 0.351h1.99l1e-3 25.981c0.01 1.796 1.453 3.262 3.289 3.309 0.021 2e-3 0.041 4e-3 0.062 4e-3h14.241 8e-3c0.131-2e-3 0.25-0.055 0.338-0.139l7e-3 -7e-3c1e-3 0 0 0 1e-3 -1e-3 0.086-0.089 0.14-0.211 0.141-0.345v-1e-3 -1e-3 -0.011c3e-3 -0.2-0.116-0.373-0.288-0.451z"/>
	<path d="m69.26 73.029c0-1e-3 -1e-3 -1e-3 0 0-2e-3 -1e-3 -3e-3 -1e-3 -4e-3 -2e-3h-1e-3 -1e-3 -1e-3 -1e-3c-1e-3 1e-3 -1e-3 0-2e-3 0h-1e-3 -1e-3 -1e-3 -2e-3s0-1e-3 -1e-3 0h-1e-3 -1e-3c-1e-3 0-2e-3 0-3e-3 -1e-3s-2e-3 -1e-3 -3e-3 -1e-3c0 0-1e-3 0-1e-3 -1e-3h-1e-3 -1e-3 -1e-3 -1e-3c-1e-3 0-1e-3 -1e-3 -2e-3 -1e-3h-1e-3c-0.045-0.016-0.094-0.026-0.145-0.028h-1e-3 -1e-3 -1e-3 -0.011-1e-3 -1e-3 -1e-3 -1e-3 -1e-3 -1e-3 -1e-3 -1e-3 -1e-3 -1e-3c-1.277 0-2.322-1.04-2.33-2.315v-20.173h1.99c7e-3 0 0.013-1e-3 0.02 0 0.276 0 0.5-0.224 0.5-0.5 0-0.209-0.128-0.388-0.31-0.463l-9.552-6.592c-0.171-0.118-0.397-0.118-0.568 0l-9.625 6.644c-0.18 0.125-0.258 0.352-0.193 0.561s0.259 0.351 0.478 0.351h1.981l1e-3 20.165c9e-3 1.797 1.454 3.264 3.29 3.309 0.02 2e-3 0.04 3e-3 0.06 3e-3h14.259 8e-3c0.131-2e-3 0.25-0.055 0.338-0.139 1e-3 -1e-3 4e-3 -3e-3 4e-3 -4e-3l3e-3 -3e-3c2e-3 0 1e-3 0 1e-3 -1e-3 0.086-0.089 0.14-0.211 0.141-0.345v-1e-3 -1e-3 -0.011c-3e-3 -0.2-0.123-0.373-0.295-0.451z"/>
	<path d="m89.92 73.029c0-1e-3 -1e-3 -1e-3 0 0-2e-3 -1e-3 -3e-3 -1e-3 -3e-3 -1e-3h-1e-3 -1e-3 -1e-3 -1e-3 -1e-3c-1e-3 1e-3 -1e-3 0-2e-3 0h-1e-3 -1e-3 -2e-3s0-1e-3 -1e-3 0h-1e-3 -1e-3c-1e-3 0-2e-3 0-3e-3 -1e-3s-2e-3 -1e-3 -3e-3 -1e-3h-1e-3c-1e-3 0-1e-3 0-2e-3 -1e-3h-1e-3 -2e-3 -1e-3 -1e-3 -1e-3c-0.045-0.016-0.094-0.026-0.145-0.028h-1e-3 -1e-3 -1e-3 -0.01-1e-3 -1e-3 -1e-3 -1e-3 -1e-3 -1e-3 -1e-3 -1e-3 -1e-3 -1e-3 -1e-3c-1.277 0-2.322-1.04-2.33-2.315v-14.361h1.985 0.01c0.281-7e-3 0.51-0.22 0.51-0.5 0-0.209-0.128-0.388-0.31-0.463l-9.552-6.592c-0.171-0.118-0.397-0.118-0.568 0l-9.625 6.643c-0.18 0.125-0.258 0.352-0.193 0.561s0.259 0.351 0.478 0.351h1.985l1e-3 14.35c0.01 1.797 1.455 3.264 3.29 3.309 0.02 2e-3 0.04 3e-3 0.06 3e-3h14.259 8e-3c0.131-2e-3 0.25-0.055 0.338-0.139 1e-3 -1e-3 4e-3 -3e-3 4e-3 -4e-3l3e-3 -3e-3c2e-3 0 0 0 1e-3 -1e-3 0.086-0.089 0.14-0.211 0.141-0.345v-1e-3 -1e-3 -9e-3c-2e-3 -0.2-0.122-0.373-0.294-0.451z"/>
</g>
</svg>
